<?xml version="1.0" encoding="UTF-8" standalone="no"?>
<svg
   width="15"
   height="15"
   viewBox="0 0 15 15"
   version="1.1"
   id="svg147"
   sodipodi:docname="icon-finish.svg"
   inkscape:export-filename="icon-finish.svg"
   inkscape:export-xdpi="96"
   inkscape:export-ydpi="96"
   inkscape:version="1.2.1 (9c6d41e, 2022-07-14)"
   xmlns:inkscape="http://www.inkscape.org/namespaces/inkscape"
   xmlns:sodipodi="http://sodipodi.sourceforge.net/DTD/sodipodi-0.dtd"
   xmlns="http://www.w3.org/2000/svg"
   xmlns:svg="http://www.w3.org/2000/svg">
  <sodipodi:namedview
     id="namedview149"
     pagecolor="#ffffff"
     bordercolor="#000000"
     borderopacity="0.25"
     inkscape:showpageshadow="2"
     inkscape:pageopacity="0.0"
     inkscape:pagecheckerboard="0"
     inkscape:deskcolor="#d1d1d1"
     showgrid="false"
     inkscape:zoom="21.256502"
     inkscape:cx="12.678474"
     inkscape:cy="16.136239"
     inkscape:window-width="1728"
     inkscape:window-height="1052"
     inkscape:window-x="0"
     inkscape:window-y="65"
     inkscape:window-maximized="0"
     inkscape:current-layer="svg147" />
  <defs
     id="defs134">
    <clipPath
       id="clip-path">
      <rect
         id="Rectangle_72"
         data-name="Rectangle 72"
         width="57.275002"
         height="63"
         fill="none"
         stroke="#242021"
         stroke-width="3"
         x="0"
         y="0" />
    </clipPath>
  </defs>
  <g
     id="Component_12_1"
     data-name="Component 12 – 1"
     transform="matrix(0.21638011,0,0,0.21638011,1.3481396,-0.31965501)">
    <g
       id="Group_12"
       data-name="Group 12"
       transform="translate(0,7.697)">
      <g
         id="Group_11"
         data-name="Group 11"
         clip-path="url(#clip-path)">
        <path
           id="Path_22"
           data-name="Path 22"
           d="m 102.294,26.531 c 2.684,0 4.607,-1.72 4.607,-4.213 v -2.105 c 0,-2.492 -1.923,-4.213 -4.607,-4.213 -2.684,0 -4.607,1.72 -4.607,4.213 v 2.106 c 0,2.492 1.923,4.212 4.607,4.212 z"
           transform="translate(-81.613,-13.367)"
           fill="none"
           stroke="#242021"
           stroke-miterlimit="10"
           stroke-width="3" />
        <path
           id="Path_23"
           data-name="Path 23"
           d="M 121.687,246.43 123,228 l 6.582,3.291 v 8.557"
           transform="translate(-101.663,-190.482)"
           fill="none"
           stroke="#242021"
           stroke-linejoin="round"
           stroke-width="3" />
        <path
           id="Path_24"
           data-name="Path 24"
           d="m 33.687,315.848 6.582,-3.949 h 5.65 l 2.249,-1.316 h 3.949 L 54.749,304 h 5.266 l 3.949,2.633 h 5.266 l 2.633,2.633 h 5.266 l 5.266,6.582"
           transform="translate(-28.144,-253.977)"
           fill="none"
           stroke="#242021"
           stroke-miterlimit="10"
           stroke-width="3" />
        <path
           id="Path_25"
           data-name="Path 25"
           d="m 21.442,111.846 v -32.91 c 0,0 -9.252,-5.447 -11.742,-7.515 -2.637,-2.194 -1.426,-6.088 -1.426,-6.088 0,0 7.043,3.075 11.606,5.321 1.9,0.934 4.708,1.042 6.824,1.042 h 18.43 c 0,0 0.3,4.429 -3.949,5.224 -2.57,0.481 -9.215,2.016 -9.215,2.016 v 6.579 l 7.9,7.237 v 11.853"
           transform="translate(-6.684,-54.582)"
           fill="none"
           stroke="#242021"
           stroke-linecap="round"
           stroke-linejoin="round"
           stroke-width="3" />
        <line
           id="Line_15"
           data-name="Line 15"
           y2="34.884998"
           transform="translate(38.453,17.113)"
           fill="none"
           stroke="#242021"
           stroke-miterlimit="10"
           stroke-width="3"
           x1="0"
           y1="0"
           x2="0" />
        <line
           id="Line_16"
           data-name="Line 16"
           y2="17.113001"
           transform="translate(38.453)"
           fill="none"
           stroke="#242021"
           stroke-miterlimit="10"
           stroke-width="3"
           x1="0"
           y1="0"
           x2="0" />
        <path
           id="Path_26"
           data-name="Path 26"
           d="m 233.746,29.254 c 5.783,-5.291 10.2,1.766 17.447,-1.759 a 17.614,17.614 0 0 1 -3.518,-3.825 22.6,22.6 0 0 1 3.46,-4.629 c -8.706,3.378 -11.664,-3.532 -17.447,1.759"
           transform="translate(-195.234,-15.645)"
           fill="none"
           stroke="#242021"
           stroke-linecap="round"
           stroke-linejoin="round"
           stroke-width="3" />
      </g>
    </g>
    <path
       id="Path_31"
       data-name="Path 31"
       d="m 15.253,10.145 h 0.714 a 0.692,0.692 0 0 0 0.566,-0.355 1.556,1.556 0 0 0 0,-1.959 l -6,-6.58 A 1.506,1.506 0 0 0 9.479,1 H 1.606 C 1.356,1 1.181,1.24 1.07,1.565 a 1.251,1.251 0 0 0 0.2,1.2 l 6.555,7.014 a 1.582,1.582 0 0 0 1.129,0.367 l 6.965,0.259"
       transform="rotate(-26,18.297131,-15.037991)"
       fill="none"
       stroke="#231f20"
       stroke-miterlimit="10"
       stroke-width="3" />
  </g>
</svg>
